# xmcd
#
# Track frame offsets: 
#        150
#        18863
#        34445
#        51527
#        71440
#        93359
#        112541
#        134723
#        155705
#        176949
#        192306
#        210981
#        230350
#        243588
#
# Disc length: 3414 seconds
#
# Revision: 0
# Processed by: cddbd v1.5.2PL0 Copyright (c) Steve Scherf et al.
# Submitted via: ExactAudioCopy v1.0b6
#
DISCID=c50d540e
DTITLE=Tina Turner - The Many Faces Of Tina Turner  - The Songs
DYEAR=2018
DGENRE=Rhythmic Soul
TTITLE0=Darlene Love - River Deep, Mountain High
TTITLE1=Alannah Mules and Jeff Healey - I Can't Stand The Rain
TTITLE2=Tiffany - What's Love Got To Do With It
TTITLE3=Jane Child - We Don't Need Another Hero
TTITLE4=Deniece Williams - What You Get Is What You See
TTITLE5=Kip Winger - On Silent Wings
TTITLE6=Richard Kendrick - Better Be Good To Me
TTITLE7=Ross Stevens - Proud Mary
TTITLE8=Rose Reiter - I Don't Wanna Fight
TTITLE9=Michel'le and Tony Janflone Jr - Rock Me Baby
TTITLE10=Jasy Andrews - Private Dancer
TTITLE11=Nancy Kerrigan - The Best
TTITLE12=Kip Winger - So Fine
TTITLE13=Richard Kendrick and Darlene Love - River Deep, Mountain High (
TTITLE13=Acapella)
EXTD=
EXTT0=
EXTT1=
EXTT2=
EXTT3=
EXTT4=
EXTT5=
EXTT6=
EXTT7=
EXTT8=
EXTT9=
EXTT10=
EXTT11=
EXTT12=
EXTT13=
PLAYORDER=
